:SAMPLES-PER-SECOND 30
:FULLY-SPECIFIED
:DEGREES
254
root  -3.65233 40.3703 8.91743 97.8953 85.9037 92.5484
RightUpLeg  4.75083 -11.6292 -8.93808
RightLeg  6.92486 -8.36828 4.657
RightFoot  -12.8796 -0.0391437 3.62946
RightToes  0.00048216 0.542163 -0.142577
Spine  10.7072 1.82382 7.72573
Spine1  5.42433 3.95877 -6.51112
HEad  -6.64983 17.3585 -7.38224
LeftShoulder1  6.2801 -10.0209 -40.1598
LeftArm  -12.97 21.7574 -21.7188
LeftForeArm  25.2215 -17.4958 -3.43263
LeftHand  -0.25398 0.0180481 5.50724
RightShoulder  3.58805 6.99468 28.1718
RightArm  -14.03 -8.6686 20.2224
RightForeArm  0.952981 19.4138 4.71837
RightHand  -0.524445 -1.37014 -15.0258
LeftUpLeg  -19.8857 6.41306 -2.20942
LeftLeg  7.37998 9.969 -2.02671
LeftFoot  5.13899 0.194532 -1.53772
LeftToes  1.06246e-005 4.65855e-005 -8.18505e-006
255
root  -4.18326 40.5256 8.95744 87.6017 85.3253 82.1717
RightUpLeg  3.74421 -11.516 -9.18958
RightLeg  6.57191 -7.81593 4.3609
RightFoot  -11.9522 -0.060803 3.75572
RightToes  0.00048216 0.542163 -0.142577
Spine  10.499 2.17275 7.22658
Spine1  5.11945 4.35139 -6.80584
HEad  -5.95697 17.0116 -6.74823
LeftShoulder1  5.56503 -9.31219 -37.2743
LeftArm  -15.1925 20.3033 -18.5268
LeftForeArm  23.5968 -17.8273 -3.21413
LeftHand  -0.25398 0.0180481 5.50724
RightShoulder  3.34756 6.62332 27.0156
RightArm  -15.6963 -10.5961 18.9326
RightForeArm  4.16264 15.8913 4.57684
RightHand  -0.631547 -0.517882 -14.9203
LeftUpLeg  -19.3912 11.2546 -3.73377
LeftLeg  11.8908 6.81143 0.37221
LeftFoot  1.53462 0.0780262 -0.806294
LeftToes  1.06246e-005 4.65855e-005 -8.18505e-006
256
root  -4.6225 40.5991 8.94071 80.897 85.023 75.5236
RightUpLeg  2.93112 -11.5403 -9.29058
RightLeg  6.57586 -7.28133 4.28427
RightFoot  -11.4751 -0.07381 3.45482
RightToes  0.00048216 0.542163 -0.142577
Spine  10.1692 2.28869 6.96136
Spine1  4.52105 4.46627 -6.90644
HEad  -4.80222 17.2083 -6.06241
LeftShoulder1  4.76447 -8.46551 -33.7364
LeftArm  -16.4831 19.3578 -15.3879
LeftForeArm  23.0998 -17.7578 -3.04848
LeftHand  -0.25398 0.0180481 5.50724
RightShoulder  3.08309 6.23433 25.5645
RightArm  -17.5976 -12.3473 17.333
RightForeArm  5.00936 12.1328 4.23668
RightHand  -1.05294 1.75505 -17.1597
LeftUpLeg  -18.4017 13.3066 -3.57256
LeftLeg  16.365 5.07951 2.08683
LeftFoot  -1.6481 0.119937 -1.31023
LeftToes  1.06246e-005 4.65855e-005 -8.18505e-006
257
root  -4.98532 40.6049 8.88088 79.1193 85.2599 73.9176
RightUpLeg  2.36258 -11.6082 -9.08529
RightLeg  6.8812 -7.24746 4.41537
RightFoot  -11.2868 -0.0781401 3.20311
RightToes  0.00048216 0.542163 -0.142577
Spine  9.62433 2.16271 6.72129
Spine1  3.96531 4.18511 -6.27424
HEad  -3.31164 17.5981 -5.56864
LeftShoulder1  4.03395 -7.63608 -30.1368
LeftArm  -16.2077 18.6336 -11.9911
LeftForeArm  23.2056 -17.2365 -2.97594
LeftHand  -0.25398 0.0180481 5.50724
RightShoulder  2.75117 5.73483 23.5859
RightArm  -18.7835 -13.8825 15.3608
RightForeArm  2.93808 8.9642 3.68784
RightHand  -1.56545 3.91643 -19.7027
LeftUpLeg  -16.9306 11.5477 -1.5517
LeftLeg  20.8134 5.76945 2.74239
LeftFoot  -4.48024 0.122813 -1.56104
LeftToes  1.06246e-005 4.65855e-005 -8.18505e-006
258
root  -5.27845 40.5776 8.79431 81.5605 85.7781 76.6374
RightUpLeg  2.02859 -11.5028 -8.66183
RightLeg  7.3287 -7.71186 4.36738
RightFoot  -11.319 -0.0774597 3.27261
RightToes  0.00048216 0.542163 -0.142577
Spine  8.8868 1.96455 6.07085
Spine1  3.62268 3.64275 -4.80307
HEad  -1.70933 17.9627 -5.21517
LeftShoulder1  3.42041 -6.89172 -26.7412
LeftArm  -15.5119 17.9551 -8.58777
LeftForeArm  22.9961 -16.4651 -2.95067
LeftHand  -0.25398 0.0180481 5.50724
RightShoulder  2.33386 4.97893 21.1777
RightArm  -19.5011 -15.2478 13.161
RightForeArm  -0.729919 7.21187 3.24209
RightHand  -1.94677 5.27359 -21.3408
LeftUpLeg  -14.8992 10.5944 0.289822
LeftLeg  23.4202 5.39332 2.88017
LeftFoot  -6.78787 0.0804911 -0.991888
LeftToes  1.06246e-005 4.65855e-005 -8.18505e-006
259
root  -5.50412 40.5546 8.67265 86.3111 86.3955 81.6415
RightUpLeg  1.8348 -11.1563 -8.04655
RightLeg  7.58392 -8.46092 4.1065
RightFoot  -11.2819 -0.0780255 3.1004
RightToes  0.00048216 0.542163 -0.142577
Spine  7.9935 1.72344 5.32132
Spine1  3.3193 3.03267 -3.27213
HEad  -0.128417 18.2666 -4.5886
LeftShoulder1  2.87261 -6.15638 -23.4275
LeftArm  -15.5261 17.5395 -5.6853
LeftForeArm  21.8784 -15.9532 -2.88846
LeftHand  -0.25398 0.0180481 5.50724
RightShoulder  1.89393 3.99915 18.7447
RightArm  -20.1713 -16.3398 11.0082
RightForeArm  -5.79978 6.812 3.13578
RightHand  -2.26632 6.17264 -22.8523
LeftUpLeg  -11.8365 10.9375 1.98415
LeftLeg  22.3439 4.80385 2.5214
LeftFoot  -8.34577 0.0790935 -1.17846
LeftToes  1.06246e-005 4.65855e-005 -8.18505e-006
260
root  -5.66676 40.5477 8.48516 90.612 87.3126 86.0446
RightUpLeg  1.78334 -10.6536 -7.17125
RightLeg  7.30732 -9.23905 4.01906
RightFoot  -10.888 -0.0837623 2.54855
RightToes  0.00048216 0.542163 -0.142577
Spine  6.89527 1.44274 5.28734
Spine1  2.97616 2.52242 -2.48145
HEad  1.31096 18.4119 -3.72497
LeftShoulder1  2.38283 -5.36231 -20.3894
LeftArm  -16.0848 17.3657 -3.41838
LeftForeArm  20.3208 -16.0608 -2.81395
LeftHand  -0.25398 0.0180481 5.50724
RightShoulder  1.51044 3.0224 16.4709
RightArm  -20.6961 -17.1147 9.06105
RightForeArm  -11.8765 7.07551 3.27328
RightHand  -2.58413 6.9397 -24.3888
LeftUpLeg  -7.90918 12.4929 3.89116
LeftLeg  17.5726 4.48005 1.80188
LeftFoot  -8.90269 0.126849 -3.39151
LeftToes  1.06246e-005 4.65855e-005 -8.18505e-006
261
root  -5.78401 40.5567 8.23173 96.7974 88.3767 92.2996
RightUpLeg  2.01591 -10.1738 -6.34923
RightLeg  6.52688 -9.82865 4.22195
RightFoot  -10.2601 -0.0907635 2.21552
RightToes  0.00048216 0.542163 -0.142577
Spine  5.75541 1.22666 5.46185
Spine1  2.70388 2.06125 -1.84857
HEad  2.52951 18.3955 -3.19905
LeftShoulder1  1.99784 -4.52592 -18.2445
LeftArm  -16.8483 17.084 -1.66695
LeftForeArm  19.3121 -16.7592 -2.80554
LeftHand  -0.25398 0.0180481 5.50724
RightShoulder  1.1973 2.1555 14.2885
RightArm  -21.2591 -17.3953 7.35368
RightForeArm  -17.1569 7.42406 3.41431
RightHand  -2.81535 7.54597 -25.2909
LeftUpLeg  -3.87242 12.5732 6.04761
LeftLeg  11.2436 6.15189 0.228725
LeftFoot  -8.43265 0.212164 -6.30138
LeftToes  1.06246e-005 4.65855e-005 -8.18505e-006
262
root  -5.889 40.6112 7.96717 113.242 88.6917 108.963
RightUpLeg  2.54325 -9.94226 -6.26669
RightLeg  5.61648 -10.3727 4.33999
RightFoot  -9.61259 -0.0995628 2.29215
RightToes  0.00048216 0.542163 -0.142577
Spine  4.96877 1.03119 4.05841
Spine1  2.49173 1.36086 -0.157021
HEad  3.65396 18.4057 -3.06467
LeftShoulder1  1.73243 -3.74566 -17.1664
LeftArm  -18.0841 16.6704 -0.529082
LeftForeArm  18.7486 -17.8061 -2.86296
LeftHand  -0.25398 0.0180481 5.50724
RightShoulder  0.933377 1.2915 12.4243
RightArm  -22.1735 -16.9286 6.24622
RightForeArm  -21.1539 7.83958 3.48578
RightHand  -3.10652 8.32791 -26.2561
LeftUpLeg  -0.824467 8.60291 7.28266
LeftLeg  5.90203 10.7263 -2.1862
LeftFoot  -7.17918 0.317069 -7.57483
LeftToes  1.06246e-005 4.65855e-005 -8.18505e-006
263
root  -6.00864 40.7191 7.73026 130.393 87.7517 126.371
RightUpLeg  2.98513 -10.0433 -7.06168
RightLeg  5.05098 -11.1699 4.10551
RightFoot  -8.98673 -0.108549 2.42894
RightToes  0.00048216 0.542163 -0.142577
Spine  4.63776 0.67456 0.974534
Spine1  2.16007 0.390356 2.22189
HEad  4.89379 18.381 -2.54176
LeftShoulder1  1.56425 -3.20406 -16.5241
LeftArm  -19.81 16.2926 -0.25318
LeftForeArm  17.541 -18.7542 -2.97941
LeftHand  -0.25398 0.0180481 5.50724
RightShoulder  0.743103 0.501892 11.4246
RightArm  -23.1935 -16.2267 6.2087
RightForeArm  -24.1116 8.56215 3.60792
RightHand  -3.65839 9.70504 -28.0204
LeftUpLeg  0.531556 6.51988 6.45449
LeftLeg  2.71834 11.9602 -3.42492
LeftFoot  -5.50275 0.380286 -6.842
LeftToes  1.06246e-005 4.65855e-005 -8.18505e-006
264
root  -6.13798 40.8163 7.48699 136.092 86.4578 132.136
RightUpLeg  2.99688 -10.3021 -8.05909
RightLeg  4.98354 -11.9812 3.73364
RightFoot  -8.43656 -0.117886 2.60606
RightToes  0.00048216 0.542163 -0.142577
Spine  4.42415 0.248825 -1.37085
Spine1  1.71277 -0.316325 3.37423
HEad  6.15941 17.8965 -1.25099
LeftShoulder1  1.49446 -3.08122 -15.8468
LeftArm  -21.0903 15.5803 -0.673335
LeftForeArm  15.5522 -18.9089 -3.04632
LeftHand  -0.25398 0.0180481 5.50724
RightShoulder  0.681086 0.158204 11.458
RightArm  -23.4526 -16.3469 6.99527
RightForeArm  -24.8711 9.31341 3.78767
RightHand  -4.09923 10.8275 -29.185
LeftUpLeg  0.792957 5.58977 4.98687
LeftLeg  1.15752 11.8638 -3.68627
LeftFoot  -3.99305 0.370367 -5.38516
LeftToes  1.06246e-005 4.65855e-005 -8.18505e-006
265
root  -6.2538 40.8545 7.18472 137.708 85.9892 133.771
RightUpLeg  2.8984 -10.4935 -8.7245
RightLeg  4.9532 -12.1457 3.56701
RightFoot  -7.98736 -0.139057 2.97458
RightToes  0.00048216 0.542163 -0.142577
Spine  4.11565 0.125441 -1.33384
Spine1  1.44587 -0.243997 2.42471
HEad  7.03501 16.8773 -0.00404295
LeftShoulder1  1.5374 -3.36046 -15.5237
LeftArm  -21.0698 14.0365 -1.12304
LeftForeArm  14.3496 -17.8939 -2.90471
LeftHand  -0.25398 0.0180481 5.50724
RightShoulder  0.751419 0.416293 12.0809
RightArm  -22.6027 -17.2003 7.75729
RightForeArm  -22.5731 9.18634 3.82706
RightHand  -3.93139 10.5852 -28.4291
LeftUpLeg  0.890079 5.08817 4.10958
LeftLeg  0.393289 12.2472 -3.81152
LeftFoot  -3.32933 0.326425 -4.36558
LeftToes  1.06246e-005 4.65855e-005 -8.18505e-006
266
root  -6.34254 40.8562 6.8204 132.189 86.4948 128.54
RightUpLeg  3.14718 -10.6122 -9.22383
RightLeg  4.63008 -11.4059 3.61306
RightFoot  -7.60294 -0.160362 3.3231
RightToes  0.00048216 0.542163 -0.142577
Spine  3.91832 0.446889 -0.0555018
Spine1  1.56586 0.415679 0.761801
HEad  7.33747 15.9284 0.253875
LeftShoulder1  1.65502 -3.74958 -15.9887
LeftArm  -20.1945 12.0732 -1.25504
LeftForeArm  15.24 -16.2128 -2.67396
LeftHand  -0.25398 0.0180481 5.50724
RightShoulder  0.882052 0.952247 12.7841
RightArm  -21.3698 -17.3865 8.12156
RightForeArm  -18.8789 7.69819 3.63911
RightHand  -3.51197 9.72038 -26.9457
LeftUpLeg  1.26141 5.20034 3.8187
LeftLeg  0.306551 12.8112 -4.08783
LeftFoot  -3.63003 0.277821 -3.79586
LeftToes  1.06246e-005 4.65855e-005 -8.18505e-006
267
root  -6.40053 40.8506 6.43006 116.779 87.1723 113.59
RightUpLeg  3.54682 -10.7567 -9.84222
RightLeg  4.31136 -10.125 3.61373
RightFoot  -7.34534 -0.174591 3.57161
RightToes  0.00048216 0.542163 -0.142577
Spine  3.90317 0.87811 0.798916
Spine1  1.90898 1.03259 -0.138627
HEad  7.39575 15.5552 -0.336998
LeftShoulder1  1.75549 -3.94281 -16.8176
LeftArm  -19.4959 10.7296 -1.53354
LeftForeArm  17.1281 -14.7148 -2.52984
LeftHand  -0.25398 0.0180481 5.50724
RightShoulder  0.998672 1.39963 13.4185
RightArm  -20.6266 -16.2672 8.4823
RightForeArm  -16.5693 5.70238 3.43907
RightHand  -3.40003 9.50493 -26.4822
LeftUpLeg  1.6293 5.37483 3.46851
LeftLeg  0.862943 13.4966 -4.27518
LeftFoot  -4.44241 0.222546 -3.24698
LeftToes  1.06246e-005 4.65855e-005 -8.18505e-006
